<svg xmlns="http://www.w3.org/2000/svg" xmlns:svg="http://www.w3.org/2000/svg" id="Layer_2" width="600" height="600" x="0" y="0" enable-background="new 0 0 600 600" version="1.1" viewBox="0 0 600 600" xml:space="preserve"><metadata id="metadata3071"/><circle id="circle3059" cx="299.529" cy="299.628" r="50.167" transform="matrix(0.83872581,0,0,0.83872581,48.554465,48.784114)" style="fill:#00d8ff"/><path id="path3061" stroke-miterlimit="10" d="m 299.77717,214.53982 c 56.49321,0 108.97396,8.10628 148.54421,21.72887 47.67653,16.41302 76.99,41.29299 76.99,63.82116 0,23.47677 -31.06725,49.9067 -82.26475,66.86993 -38.70803,12.82496 -89.64217,19.51883 -143.26946,19.51883 -54.98183,0 -107.04658,-6.28373 -146.18152,-19.66057 -49.52341,-16.92717 -79.352691,-43.70013 -79.352691,-66.72819 0,-22.34533 27.988281,-47.03239 74.994671,-63.42109 39.71786,-13.84652 93.49444,-22.12894 150.53954,-22.12894 z" style="fill:none;stroke:#00d8ff;stroke-width:20.12941933;stroke-miterlimit:10"/><path id="path3063" stroke-miterlimit="10" d="m 225.30419,257.56142 c 28.22228,-48.93797 61.46266,-90.3509 93.03146,-117.8242 38.03622,-33.10115 74.23311,-46.06534 93.74858,-34.81132 20.33742,11.72791 27.71318,51.845 16.83071,104.66963 -8.2279,39.93844 -27.87421,87.40529 -54.66479,133.86148 -27.46743,47.62956 -58.92049,89.59185 -90.05986,116.81102 -39.40418,34.44479 -77.49827,46.90909 -97.44736,35.40513 -19.35695,-11.16344 -26.76039,-47.74111 -17.47401,-96.64889 7.84628,-41.32402 27.53704,-92.04596 56.03527,-141.46285 z" style="fill:none;stroke:#00d8ff;stroke-width:20.12941933;stroke-miterlimit:10"/><path id="path3065" stroke-miterlimit="10" d="m 225.37548,343.58114 c -28.30364,-48.89101 -47.58176,-98.37164 -55.61759,-139.44236 -9.68225,-49.48398 -2.83657,-87.31891 16.66045,-98.60564 20.3173,-11.76229 58.75694,1.8821 99.08707,37.69234 30.49272,27.07407 61.80403,67.80008 88.67261,114.21181 27.54711,47.58343 48.19402,95.79003 56.22482,136.36172 10.16284,51.34092 1.93662,90.56897 -17.99318,102.10648 -19.3385,11.19531 -54.72602,-0.65756 -92.4603,-33.12883 -31.88248,-27.43556 -65.99262,-69.82644 -94.57388,-119.19552 z" style="fill:none;stroke:#00d8ff;stroke-width:20.12941933;stroke-miterlimit:10"/><text style="font-size:33.54903412px;font-style:normal;font-weight:400;line-height:125%;letter-spacing:-83.87258148px;word-spacing:0;fill:#00d8ff;fill-opacity:1;stroke:none;font-family:Sans" id="text5194" x="-171.078" y="463.527" xml:space="preserve"><tspan id="tspan5196" x="-171.078" y="463.527" style="font-size:670.98065186px;font-style:normal;font-variant:normal;font-weight:400;font-stretch:normal;letter-spacing:-83.87258148px;fill:#00d8ff;fill-opacity:1;font-family:FreeMono;-inkscape-font-specification:FreeMono">[</tspan></text><text style="font-size:33.54903412px;font-style:normal;font-weight:400;line-height:125%;letter-spacing:-83.87258148px;word-spacing:0;fill:#00d8ff;fill-opacity:1;stroke:none;font-family:Sans" id="text5194-0" x="370.625" y="463.527" xml:space="preserve"><tspan id="tspan5196-1" x="370.625" y="463.527" style="font-size:670.98065186px;font-style:normal;font-variant:normal;font-weight:400;font-stretch:normal;letter-spacing:-83.87258148px;fill:#00d8ff;fill-opacity:1;font-family:FreeMono;-inkscape-font-specification:FreeMono">]</tspan></text></svg>